# xmcd
# 
# Track frame offsets:
#     150
#     21005
#     40285
#     62847
#     78599
#     89480
#     114472
#     126370
#     139703
#     155797
# 
# Disc length: 2341
# 
# Revision: 0
# Processed by: cddbd v1.5.2PL0 Copyright (c) Steve Scherf et al.
# Submitted via: fre:ac v1.0.31
# 
DISCID=8909230a
DTITLE=David Eugene Edwards and Alexander Hacke - RISHA
DYEAR=2018
DGENRE=
TTITLE0=Triptych
TTITLE1=All In The Palm
TTITLE2=The Tell
TTITLE3=Helios
TTITLE4=Kiowa 5
TTITLE5=Lily
TTITLE6=Parish Chief
TTITLE7=Akhal
TTITLE8=Teach Us To Pray
TTITLE9=Breathtaker
EXTD=
EXTT0=
EXTT1=
EXTT2=
EXTT3=
EXTT4=
EXTT5=
EXTT6=
EXTT7=
EXTT8=
EXTT9=
PLAYORDER=
